<?xml version="1.0" encoding="UTF-8"?>
<!DOCTYPE svg PUBLIC "-//W3C//DTD SVG 1.1//EN" "http://www.w3.org/Graphics/SVG/1.1/DTD/svg11.dtd">
<!-- Creator: CorelDRAW -->
<svg xmlns="http://www.w3.org/2000/svg" xml:space="preserve" width="1.70666in" height="1.70666in" style="shape-rendering:geometricPrecision; text-rendering:geometricPrecision; image-rendering:optimizeQuality; fill-rule:evenodd; clip-rule:evenodd"
viewBox="0 0 1.70666 1.70666"
 xmlns:xlink="http://www.w3.org/1999/xlink"
 version="1.1"
 enable-background="new 0 0 512 512">
 <defs>
  <style type="text/css">
   <![CDATA[
    .fil0 {fill:black}
   ]]>
  </style>
 </defs>
 <g id="Layer_x0020_1">
  <metadata id="CorelCorpID_0Corel-Layer"/>
  <g id="_218569352">
   <g>
    <g id="_218569160">
     <path id="_245917776" class="fil0" d="M1.24545 0.975933l-0.925677 0c-0.0119646,0 -0.0216654,-0.00970079 -0.0216654,-0.0216654l0 -0.041315 -0.087748 0c-0.0119685,0 -0.0216654,-0.00969685 -0.0216654,-0.0216614l0 -0.603823c0,-0.0370079 0.0301142,-0.0671181 0.0671299,-0.0671181l1.0406 0c0.0370118,0 0.067126,0.0301102 0.067126,0.0671181l0 0.596236c0,0.0119646 -0.00969685,0.0216654 -0.0216654,0.0216654l-0.0747795 0 0 0.0489016c3.93701e-006,0.0119606 -0.00969685,0.0216614 -0.0216575,0.0216614zm-0.904012 -0.0433307l0.882346 0 0 -0.0340118c0,-0.0201575 0.0163976,-0.0365551 0.0365512,-0.0365551l0.0598937 0 0 -0.574567c0,-0.0131181 -0.0106772,-0.0237874 -0.0237992,-0.0237874l-1.04061 0c-0.013126,0 -0.0238031,0.0106732 -0.0238031,0.0237913l0 0.582161 0.0776575 -3.93701e-006c0.0175118,0 0.0317559,0.014248 0.0317559,0.0317598l0 0.0312126 3.93701e-006 0z"/>
    </g>
    <g id="_218568872">
     <path id="_245917536" class="fil0" d="M0.87715 1.25124l-0.202059 0c-0.0119646,0 -0.0216614,-0.00969685 -0.0216614,-0.0216614l0 -0.275311c0,-0.0119685 0.00969685,-0.0216654 0.0216614,-0.0216654l0.202059 0c0.0119646,0 0.0216654,0.00969685 0.0216654,0.0216654l0 0.275311c0,0.0119646 -0.00970079,0.0216614 -0.0216654,0.0216614zm-0.18039 -0.0433268l0.158728 0 0 -0.23198 -0.158728 0 0 0.23198z"/>
    </g>
    <g id="_215025784">
     <path id="_245917512" class="fil0" d="M1.04321 1.41541l-0.534173 0c-0.0119685,0 -0.0216654,-0.00969685 -0.0216654,-0.0216654l0 -0.0820866c0,-0.0572087 0.0465394,-0.103748 0.103748,-0.103748l0.370012 0c0.0572047,0 0.103744,0.0465394 0.103744,0.103748l0 0.0820866c0,0.0119646 -0.00969685,0.0216654 -0.0216654,0.0216654zm-0.512508 -0.0433268l0.490846 0 0 -0.0604252c0,-0.033315 -0.0271063,-0.0604173 -0.0604173,-0.0604173l-0.370008 0c-0.0333189,0 -0.0604213,0.0271024 -0.0604213,0.0604173l0 0.0604252z"/>
    </g>
    <g id="_215026024">
     <path id="_245917248" class="fil0" d="M1.34189 0.768823l-1.13153 0c-0.0119646,0 -0.0216654,-0.00969685 -0.0216654,-0.0216614 0,-0.0119685 0.00970079,-0.0216654 0.0216654,-0.0216654l1.13153 0c0.0119685,0 0.0216654,0.00969685 0.0216654,0.0216654 0,0.0119646 -0.00969685,0.0216614 -0.0216654,0.0216614z"/>
    </g>
    <g id="_215025928">
     <path id="_245917416" class="fil0" d="M0.841795 0.872378l-0.131339 0c-0.0119685,0 -0.0216654,-0.00969685 -0.0216654,-0.0216654 0,-0.0119646 0.00969685,-0.0216614 0.0216654,-0.0216614l0.131339 0c0.0119685,0 0.0216654,0.00969685 0.0216654,0.0216614 0,0.0119685 -0.00970079,0.0216654 -0.0216654,0.0216654z"/>
    </g>
    <g id="_215026168">
     <path id="_245917656" class="fil0" d="M0.309677 1.3979l-0.277835 0c-0.0175157,0 -0.0317677,-0.0142441 -0.0317677,-0.0317559l0 -0.464752c0,-0.0175157 0.014252,-0.0317598 0.0317677,-0.0317598l0.277835 0c0.0175118,0 0.0317598,0.0142441 0.0317598,0.0317598l0 0.464748c0,0.0175118 -0.0142441,0.0317598 -0.0317598,0.0317598zm-0.266268 -0.0433268l0.254701 0 0 -0.441614 -0.254701 0 0 0.441614z"/>
    </g>
    <g id="_465597704">
     <path id="_245900760" class="fil0" d="M0.319772 1.2988l-0.298028 0c-0.0119646,0 -0.0216654,-0.00970079 -0.0216654,-0.0216654l0 -0.286756c0,-0.0119646 0.00970079,-0.0216614 0.0216654,-0.0216614l0.298031 0c0.0119685,0 0.0216654,0.00969685 0.0216654,0.0216614l0 0.286756c-3.93701e-006,0.0119646 -0.00970079,0.0216654 -0.0216693,0.0216654zm-0.276362 -0.0433307l0.254701 0 0 -0.243425 -0.254701 0 0 0.243425z"/>
    </g>
    <g id="_465597728">
     <path id="_245900736" class="fil0" d="M0.187177 1.34835l-0.0328386 0c-0.0119646,0 -0.0216654,-0.00969685 -0.0216654,-0.0216654 0,-0.0119646 0.00970079,-0.0216654 0.0216654,-0.0216654l0.0328386 0c0.0119646,0 0.0216614,0.00970079 0.0216614,0.0216654 0,0.0119685 -0.00969685,0.0216654 -0.0216614,0.0216654z"/>
    </g>
    <g id="_465597584">
     <path id="_245900640" class="fil0" d="M1.67003 1.48631l-0.409697 0c-0.0201575,0 -0.0365591,-0.0163976 -0.0365591,-0.0365512l0 -0.551169c0,-0.0201575 0.0164016,-0.0365591 0.0365591,-0.0365591l0.409697 0c0.0201575,0 0.0365551,0.0164016 0.0365551,0.0365591l0 0.551173c0,0.0201535 -0.0163976,0.0365472 -0.0365551,0.0365472zm-0.402921 -0.0433307l0.39615 0 0 -0.537618 -0.39615 0 0 0.537618z"/>
    </g>
    <g id="_465597944">
     <path id="_245900232" class="fil0" d="M1.68492 1.36997l-0.439476 0c-0.0119685,0 -0.0216654,-0.00969685 -0.0216654,-0.0216654l0 -0.348264c0,-0.0119646 0.00970079,-0.0216654 0.0216654,-0.0216654l0.439476 0c0.0119646,0 0.0216654,0.00970079 0.0216654,0.0216654l0 0.348264c0,0.0119646 -0.00970079,0.0216654 -0.0216654,0.0216654zm-0.417811 -0.0433307l0.39615 0 0 -0.304933 -0.39615 0 0 0.304933z"/>
    </g>
    <g id="_465597488">
     <path id="_245900016" class="fil0" d="M1.48939 1.42814l-0.0484134 0c-0.0119685,0 -0.0216654,-0.00969685 -0.0216654,-0.0216654 0,-0.0119646 0.00969685,-0.0216614 0.0216654,-0.0216614l0.0484134 0c0.0119646,0 0.0216654,0.00969685 0.0216654,0.0216654 0,0.0119646 -0.00970079,0.0216614 -0.0216654,0.0216614z"/>
    </g>
    <g id="_465597560">
     <path id="_245899920" class="fil0" d="M1.48939 0.963531l-0.0484134 0c-0.0119685,0 -0.0216654,-0.00970079 -0.0216654,-0.0216654 0,-0.0119685 0.00969685,-0.0216654 0.0216654,-0.0216654l0.0484134 0c0.0119646,0 0.0216654,0.00969685 0.0216654,0.0216654 0,0.0119646 -0.00970079,0.0216654 -0.0216654,0.0216654z"/>
    </g>
   </g>
  </g>
 </g>
</svg>
